<svg viewBox="0 0 491 428" fill="none" xmlns="http://www.w3.org/2000/svg">
<path d="M390.04 278.871C388.861 278.871 387.684 278.98 386.525 279.196L377.682 280.846C347.118 286.538 316.095 289.406 285.006 289.413H207.578C176.49 289.406 145.468 286.538 114.906 280.847L106.057 279.196C104.899 278.98 103.723 278.871 102.544 278.871C78.7654 278.871 59.4198 298.217 59.4198 321.996C59.4198 344.729 66.8353 369.784 79.2561 389.015C95.2485 413.775 118.153 427.411 143.752 427.411C166.574 427.411 185.472 419.232 199.919 403.102C211.492 390.182 218.527 374.149 224.735 360.003C234.079 338.713 239.016 330.118 246.453 328.19C254.603 330.142 259.755 338.916 269.349 360.698C275.527 374.725 282.529 390.622 294.025 403.4C308.36 419.333 327.123 427.411 349.791 427.411C407.385 427.411 433.165 379.761 433.165 332.537V321.996C433.165 298.217 413.82 278.871 390.04 278.871ZM189.634 344.599C177.167 373.006 168.89 389.078 143.752 389.078C115.253 389.078 97.7526 350.007 97.7526 321.996C97.7539 320.916 98.1195 319.868 98.7902 319.021C99.461 318.175 100.398 317.579 101.449 317.331L107.878 318.53C137.432 324.033 167.391 327.084 197.448 327.651C194.638 333.196 192.117 338.943 189.634 344.599ZM394.832 332.537C394.832 345.802 391.583 389.078 349.791 389.078C324.945 389.078 316.759 373.24 304.43 345.247C301.84 339.365 299.207 333.387 296.245 327.629C325.932 327.009 355.519 323.965 384.711 318.529L391.136 317.331C392.187 317.579 393.124 318.175 393.795 319.021C394.465 319.868 394.831 320.916 394.832 321.996V332.537ZM490.046 207C487.403 196.759 476.956 190.599 466.706 193.231C465.947 193.427 389.189 212.747 250.126 212.747C190.973 212.747 141.39 209.251 103.826 205.21C107.256 190.209 115.811 155.205 128.252 120.51C151.513 55.6411 171.831 38.3328 180.168 38.3328C183.456 38.3328 191.088 39.663 205.26 48.5715C229.962 64.0992 262.045 64.2123 286.996 48.86C303.624 38.628 310.706 38.3328 311.458 38.3328C321.159 38.3328 344.378 59.9305 369.861 140.879C373.039 150.975 383.801 156.582 393.899 153.405C403.996 150.226 409.603 139.464 406.425 129.368C395.783 95.5667 384.387 68.0581 372.548 47.6084C354.263 16.0174 333.709 0 311.458 0C299.21 0 284.637 5.30335 266.908 16.2129C254.292 23.9734 238.101 23.9379 225.661 16.118C208.407 5.27173 193.526 0 180.168 0C160.218 0 141.59 12.8655 124.804 38.2389C113.545 55.2578 102.565 78.5833 92.1704 107.571C77.7946 147.66 68.5392 187.166 65.6048 200.42C38.6204 196.524 23.821 193.192 23.4693 193.111C13.1607 190.734 2.87309 197.169 0.495497 207.479C-1.88593 217.794 4.54632 228.084 14.8607 230.465C18.5091 231.306 105.853 251.08 250.126 251.08C394.657 251.08 473.043 231.189 476.309 230.342C486.547 227.688 492.69 217.242 490.046 207Z" fill="url(#paint0_linear_2005_8)"/>
<defs>
<linearGradient id="paint0_linear_2005_8" x1="245.33" y1="0" x2="245.33" y2="427.411" gradientUnits="userSpaceOnUse">
<stop stop-color="#D7AE38"/>
<stop offset="0.5" stop-color="#C32B5A"/>
<stop offset="1" stop-color="#493F9F"/>
</linearGradient>
</defs>
</svg>
