<svg xmlns="http://www.w3.org/2000/svg" width="80" height="80" viewBox="0 0 80 80" fill="none">
<path d="M77.4434 35.0654L72.1167 28.8771C71.0984 27.7021 70.2759 25.5088 70.2759 23.9421V17.2838C70.2759 13.1321 66.8684 9.7246 62.7167 9.7246H56.0584C54.5309 9.7246 52.2984 8.9021 51.1234 7.88377L44.935 2.5571C42.2325 0.246266 37.8067 0.246266 35.065 2.5571L28.9159 7.92293C27.7409 8.9021 25.5084 9.7246 23.9809 9.7246H17.205C13.0534 9.7246 9.64585 13.1321 9.64585 17.2838V23.9813C9.64585 25.5088 8.82335 27.7021 7.84419 28.8771L2.55669 35.1046C0.285019 37.8071 0.285019 42.1938 2.55669 44.8963L7.84419 51.1238C8.82335 52.2988 9.64585 54.4921 9.64585 56.0196V62.7171C9.64585 66.8688 13.0534 70.2763 17.205 70.2763H23.9809C25.5084 70.2763 27.7409 71.0988 28.9159 72.1171L35.1042 77.4438C37.8067 79.7546 42.2325 79.7546 44.9742 77.4438L51.1625 72.1171C52.3375 71.0988 54.5309 70.2763 56.0975 70.2763H62.7559C66.9075 70.2763 70.315 66.8688 70.315 62.7171V56.0588C70.315 54.5313 71.1375 52.2988 72.1559 51.1238L77.4825 44.9354C79.7542 42.2329 79.7542 37.7679 77.4434 35.0654ZM56.2934 32.5979L37.3759 51.5154C36.8275 52.0638 36.0834 52.3771 35.3 52.3771C34.5167 52.3771 33.7725 52.0638 33.2242 51.5154L23.7459 42.0371C22.61 40.9013 22.61 39.0213 23.7459 37.8854C24.8817 36.7496 26.7617 36.7496 27.8975 37.8854L35.3 45.2879L52.1417 28.4463C53.2775 27.3104 55.1575 27.3104 56.2934 28.4463C57.4292 29.5821 57.4292 31.4621 56.2934 32.5979Z" fill="url(#paint0_linear_23_24)"/>
<defs>
<linearGradient id="paint0_linear_23_24" x1="40.0172" y1="0.823975" x2="40.0172" y2="79.1769" gradientUnits="userSpaceOnUse">
<stop stop-color="#D7AE38"/>
<stop offset="0.5" stop-color="#C32B5A"/>
<stop offset="1" stop-color="#493F9F"/>
</linearGradient>
</defs>
</svg>